# xmcd
#
# Track frame offsets:
#	150
#	13901
#	24612
#	35078
#	44686
#	56332
#	66597
#	78165
#	90836
#	102485
#	116456
#	129116
#	142351
#	154321
#	164100
#	179884
#	194865
#	203924
#	215502
#	225331
#	232316
#	242765
#	255148
#	267468
#	278063
#	288453
#	295778
#	306767
#	314563
#	330561
#	333912
#	344744
#
# Disc length: 4737 seconds
#
# Revision: 1
# Processed by: cddbd v1.5.2PL0 Copyright (c) Steve Scherf et al.
# Submitted via: audiograbber 1.83.01
#
DISCID=fb127f20
DTITLE=Patsy Cline - The New Recordings
DYEAR=2016
DGENRE=Country
TTITLE0=She's Got You
TTITLE1=Your Cheating Heart
TTITLE2=Who Can I Count On
TTITLE3=I'm Moving Along
TTITLE4=In Care Of The Blues
TTITLE5=Three Cigarettes In An Ashtray
TTITLE6=Lonely Street
TTITLE7=You Made Me Love You
TTITLE8=When I Get Through With You
TTITLE9=Thats My Desire
TTITLE10=I Can't Help It (If I'm Still in Love With You)
TTITLE11=Imagine That
TTITLE12=You're Stronger Than Me
TTITLE13=Tennesse Waltz
TTITLE14=Why Can't He Be You
TTITLE15=South Of The Border
TTITLE16=I'm Blue Again
TTITLE17=San Antonio Rose
TTITLE18=Try Again (Live in NY City)
TTITLE19=The Man Upstairs(Live in NY City)
TTITLE20=Too Many Secrets (Live in NY City)
TTITLE21=Hungry For Love (Live in NY City)
TTITLE22=Then You'll Know (Live in NY City)
TTITLE23=Crazy Dreams (Live in NY City)
TTITLE24=How Can I Face Tomorow (Live in Nashville)
TTITLE25=Loose Talk (Live in Nashville)
TTITLE26=I Don't Wanna (Live in Nashville)
TTITLE27=Let The Teardrops Fall (Live in Maryland)
TTITLE28=Have I Told You Lately That I Love You (Demo)
TTITLE29=Crazy Arms (Demo)
TTITLE30=Poor Man's Roses (Demo)
TTITLE31=Life's Railway To Heaven (Demo)
EXTD=
EXTT0=
EXTT1=
EXTT2=
EXTT3=
EXTT4=
EXTT5=
EXTT6=
EXTT7=
EXTT8=
EXTT9=
EXTT10=
EXTT11=
EXTT12=
EXTT13=
EXTT14=
EXTT15=
EXTT16=
EXTT17=
EXTT18=
EXTT19=
EXTT20=
EXTT21=
EXTT22=
EXTT23=
EXTT24=
EXTT25=
EXTT26=
EXTT27=
EXTT28=
EXTT29=
EXTT30=
EXTT31=
PLAYORDER=
